<mxfile host="app.diagrams.net" modified="2023-12-28T19:20:42.797Z" agent="Mozilla/5.0 (Windows NT 10.0; Win64; x64) AppleWebKit/537.36 (KHTML, like Gecko) Chrome/120.0.0.0 Safari/537.36" version="22.1.15" etag="W0TOCXxbCH_6BZ5Tz_Ju" type="github">
  <diagram name="Page-1" id="sc9e09U0qm37p7jLNKrA">
    <mxGraphModel>
      <root>
        <mxCell id="0" />
        <mxCell id="1" parent="0" />
      </root>
    </mxGraphModel>
  </diagram>
</mxfile>
